<?xml version="1.0" encoding="utf-8"?>
<!-- Generator: Adobe Illustrator 25.3.1, SVG Export Plug-In . SVG Version: 6.00 Build 0)  -->
<svg version="1.1" id="Layer_1" xmlns="http://www.w3.org/2000/svg" xmlns:xlink="http://www.w3.org/1999/xlink" x="0px" y="0px"
	 viewBox="0 0 78.7 140.4" style="enable-background:new 0 0 78.7 140.4;" xml:space="preserve">
<style type="text/css">
	.st0{fill:#DE425B;}
</style>
<g id="Layer_2_1_">
	<g id="Layer_1-2">
		<path class="st0" d="M77.1,5.8C42.5-5.2,8,3.9,1.6,5.8C0.9,6,0.5,6.6,0.5,7.3V10c0,1,0.8,1.8,1.8,1.8h11.1c3.3,0,7.6,3.2,7,6.4
			l-6.9,48.7c-0.1,0.7-0.7,1.3-1.4,1.3H7.7c-1.7,0-3,1.3-3,3v2.2c0,1,0.8,1.8,1.8,1.8h1.5c1,0,1.8,0.8,1.8,1.8l-1.3,61.1
			c0,1,0.8,1.8,1.8,1.8c0.9,0,1.6-0.6,1.8-1.5l10.7-50.9c0.4-1.9,2-3.2,3.9-3.2h25.7c1.9,0,3.5,1.3,3.9,3.2l10.7,50.9
			c0.1,1,1.1,1.6,2,1.5c0.9-0.1,1.5-0.9,1.5-1.8L69,77c0-1,0.8-1.8,1.7-1.8c0,0,0,0,0,0h1.5c1,0,1.7-0.8,1.8-1.7v-2.2
			c0-1.7-1.3-3-3-3h-4.4c-0.7,0-1.4-0.6-1.4-1.3l-6.9-48.7c-0.6-3.2,3.7-6.3,7-6.4h11.1c1,0,1.8-0.8,1.8-1.8c0,0,0,0,0,0V7.3
			C78.1,6.6,77.7,6,77.1,5.8z M49.6,16c1.1,0,2,0.8,2.2,1.8L56.3,66h-8.5l-3.5-50H49.6z M26.9,17.8C27,16.8,28,16,29,16h5.3l-3.5,50
			h-8.5L26.9,17.8z M56.3,79.6c0,0.6-0.4,1-1,1H23.4c-0.6,0-1-0.4-1-1v-3c0-0.6,0.4-1,1-1h31.9c0.6,0,1,0.4,1,1L56.3,79.6z"/>
	</g>
</g>
</svg>
